<?xml version="1.0" encoding="UTF-8"?>
<svg id="Calque_1" data-name="Calque 1" xmlns="http://www.w3.org/2000/svg" viewBox="0 0 165.53 165.53">
  <defs>
    <style>
      .cls-1 {
        fill: #7f7265;
      }

      .cls-2 {
        fill: #eeeae3;
      }
    </style>
  </defs>
  <rect class="cls-2" width="165.53" height="165.53"/>
  <g>
    <path class="cls-1" d="M76.74,60.1c-1.2-3.74-2.27-6.95-4.15-9.89-2.54-4.55-4.55-5.62-12.03-5.62h-14.31c-3.88,0-4.28.4-4.28,4.28v30.89h16.58c9.63,0,10.3-1.6,12.3-10.96h4.01v27.95h-4.14c-1.74-9.36-2.67-11.5-12.17-11.5h-16.58v23.93c0,11.63,1.34,12.17,13.5,13.24v3.74H18.3v-3.74c10.83-.8,12.03-1.74,12.03-13.24v-52.95c0-11.63-1.34-12.17-12.03-13.24v-3.74h42.39c12.03,0,16.58-.13,18.85-.27.13,4.81.67,14.17,1.34,20.59l-4.15.53Z"/>
    <path class="cls-1" d="M139.87,59.56c-2.27-8.83-6.02-17.52-18.59-17.52-10.43,0-14.04,7.62-14.04,14.57,0,9.23,5.88,13.91,16.98,19.66,16.05,8.29,23,14.44,23,27.14,0,14.04-12.17,24.74-29.42,24.74-8.02,0-14.98-2.27-20.46-4.41-1.07-3.74-2.67-12.84-3.61-20.06l4.14-1.07c2.67,8.96,8.56,20.59,22.46,20.59,9.63,0,15.51-6.69,15.51-15.38,0-10.3-5.48-14.44-17.25-20.86-14.04-7.62-21.93-14.04-21.93-26.48s9.89-23.13,27.54-23.13c7.49,0,14.84,2.01,17.65,2.54.53,4.81,1.07,10.16,2.14,18.85l-4.15.8Z"/>
  </g>
</svg>